<svg width="62" height="62" viewBox="0 0 62 62" fill="none" xmlns="http://www.w3.org/2000/svg">
<path d="M20.5103 6.3395C19.7838 7.06617 19.3757 8.05162 19.3757 9.07913C19.3757 10.1066 19.7838 11.0921 20.5103 11.8188L39.6915 31L20.5103 50.1813C19.8044 50.9121 19.4138 51.8909 19.4226 52.9069C19.4315 53.923 19.839 54.8949 20.5575 55.6133C21.2759 56.3318 22.2478 56.7393 23.2638 56.7481C24.2798 56.7569 25.2587 56.3664 25.9895 55.6605L47.9104 33.7396C48.6368 33.013 49.0449 32.0275 49.0449 31C49.0449 29.9725 48.6368 28.9871 47.9104 28.2604L25.9895 6.3395C25.2628 5.61305 24.2774 5.20496 23.2499 5.20496C22.2224 5.20496 21.2369 5.61305 20.5103 6.3395Z" fill="white"/>
</svg>
