<svg width="34" height="34" viewBox="0 0 34 34" fill="none" xmlns="http://www.w3.org/2000/svg">
<path d="M31.875 12.75H27.625C27.625 12.4683 27.5131 12.198 27.3138 11.9987C27.1145 11.7995 26.8443 11.6875 26.5625 11.6875H18.0625C17.7807 11.6875 17.5105 11.7995 17.3112 11.9987C17.1119 12.198 17 12.4683 17 12.75H8.5V6.9063C8.5 6.48361 8.66791 6.07823 8.9668 5.77935C9.26568 5.48046 9.67106 5.31255 10.0938 5.31255C10.4673 5.31102 10.8303 5.43612 11.1236 5.66743C11.4169 5.89874 11.6232 6.22262 11.7088 6.58622C11.7671 6.86004 11.9312 7.09975 12.1653 7.25326C12.3995 7.40677 12.6847 7.46166 12.9591 7.40602C13.2335 7.35037 13.4748 7.18868 13.6306 6.95609C13.7864 6.72349 13.8442 6.4388 13.7912 6.16388C13.6109 5.31841 13.1447 4.56089 12.4713 4.01881C11.7979 3.47672 10.9582 3.18317 10.0938 3.18755C9.10748 3.18755 8.1616 3.57934 7.4642 4.27675C6.7668 4.97415 6.375 5.92002 6.375 6.9063V12.75H2.125C1.84321 12.75 1.57296 12.862 1.3737 13.0612C1.17444 13.2605 1.0625 13.5308 1.0625 13.8125V19.125C1.06461 21.0969 1.84888 22.9875 3.24322 24.3818C4.63757 25.7762 6.5281 26.5604 8.5 26.5625V28.6875C8.5 28.9693 8.61194 29.2396 8.8112 29.4389C9.01046 29.6381 9.28071 29.75 9.5625 29.75C9.84429 29.75 10.1145 29.6381 10.3138 29.4389C10.5131 29.2396 10.625 28.9693 10.625 28.6875V26.5625H23.375V28.6875C23.375 28.9693 23.4869 29.2396 23.6862 29.4389C23.8855 29.6381 24.1557 29.75 24.4375 29.75C24.7193 29.75 24.9895 29.6381 25.1888 29.4389C25.3881 29.2396 25.5 28.9693 25.5 28.6875V26.5625C27.4719 26.5604 29.3624 25.7762 30.7568 24.3818C32.1511 22.9875 32.9354 21.0969 32.9375 19.125V13.8125C32.9375 13.5308 32.8256 13.2605 32.6263 13.0612C32.427 12.862 32.1568 12.75 31.875 12.75ZM25.5 13.8125V18.0625H19.125V13.8125H25.5ZM30.8125 19.125C30.8125 19.8227 30.6751 20.5135 30.4081 21.1581C30.1411 21.8026 29.7498 22.3882 29.2565 22.8816C28.7632 23.3749 28.1775 23.7662 27.533 24.0332C26.8885 24.3001 26.1976 24.4375 25.5 24.4375H8.5C7.09104 24.4375 5.73978 23.8778 4.7435 22.8816C3.74721 21.8853 3.1875 20.534 3.1875 19.125V14.875H17V19.125C17 19.4068 17.1119 19.6771 17.3112 19.8764C17.5105 20.0756 17.7807 20.1875 18.0625 20.1875H26.5625C26.8443 20.1875 27.1145 20.0756 27.3138 19.8764C27.5131 19.6771 27.625 19.4068 27.625 19.125V14.875H30.8125V19.125Z" fill="white"/>
</svg>
