<svg width="35" height="34" viewBox="0 0 35 34" fill="none" xmlns="http://www.w3.org/2000/svg">
<path d="M0.75 16.3124C0.75 10.1349 0.75 7.04539 2.66991 5.12712C4.58982 3.20885 7.67772 3.20721 13.8552 3.20721H20.4078C26.5852 3.20721 29.6748 3.20721 31.593 5.12712C33.5113 7.04703 33.5129 10.1349 33.5129 16.3124V19.5887C33.5129 25.7661 33.5129 28.8557 31.593 30.7739C29.6731 32.6922 26.5852 32.6939 20.4078 32.6939H13.8552C7.67772 32.6939 4.58818 32.6939 2.66991 30.7739C0.751638 28.854 0.75 25.7661 0.75 19.5887V16.3124Z" stroke="white" stroke-width="1.5"/>
<path d="M8.94051 3.20722V0.75M25.322 3.20722V0.75M1.56885 11.398H32.6936" stroke="white" stroke-width="1.5" stroke-linecap="round"/>
<path d="M26.9605 24.5031C26.9605 24.9376 26.7879 25.3542 26.4807 25.6615C26.1735 25.9687 25.7568 26.1413 25.3223 26.1413C24.8879 26.1413 24.4712 25.9687 24.164 25.6615C23.8568 25.3542 23.6842 24.9376 23.6842 24.5031C23.6842 24.0686 23.8568 23.652 24.164 23.3448C24.4712 23.0376 24.8879 22.865 25.3223 22.865C25.7568 22.865 26.1735 23.0376 26.4807 23.3448C26.7879 23.652 26.9605 24.0686 26.9605 24.5031ZM26.9605 17.9505C26.9605 18.385 26.7879 18.8017 26.4807 19.1089C26.1735 19.4161 25.7568 19.5887 25.3223 19.5887C24.8879 19.5887 24.4712 19.4161 24.164 19.1089C23.8568 18.8017 23.6842 18.385 23.6842 17.9505C23.6842 17.5161 23.8568 17.0994 24.164 16.7922C24.4712 16.485 24.8879 16.3124 25.3223 16.3124C25.7568 16.3124 26.1735 16.485 26.4807 16.7922C26.7879 17.0994 26.9605 17.5161 26.9605 17.9505ZM18.7698 24.5031C18.7698 24.9376 18.5972 25.3542 18.29 25.6615C17.9827 25.9687 17.5661 26.1413 17.1316 26.1413C16.6972 26.1413 16.2805 25.9687 15.9733 25.6615C15.6661 25.3542 15.4935 24.9376 15.4935 24.5031C15.4935 24.0686 15.6661 23.652 15.9733 23.3448C16.2805 23.0376 16.6972 22.865 17.1316 22.865C17.5661 22.865 17.9827 23.0376 18.29 23.3448C18.5972 23.652 18.7698 24.0686 18.7698 24.5031ZM18.7698 17.9505C18.7698 18.385 18.5972 18.8017 18.29 19.1089C17.9827 19.4161 17.5661 19.5887 17.1316 19.5887C16.6972 19.5887 16.2805 19.4161 15.9733 19.1089C15.6661 18.8017 15.4935 18.385 15.4935 17.9505C15.4935 17.5161 15.6661 17.0994 15.9733 16.7922C16.2805 16.485 16.6972 16.3124 17.1316 16.3124C17.5661 16.3124 17.9827 16.485 18.29 16.7922C18.5972 17.0994 18.7698 17.5161 18.7698 17.9505ZM10.579 24.5031C10.579 24.9376 10.4064 25.3542 10.0992 25.6615C9.79201 25.9687 9.37534 26.1413 8.94088 26.1413C8.50642 26.1413 8.08975 25.9687 7.78254 25.6615C7.47532 25.3542 7.30273 24.9376 7.30273 24.5031C7.30273 24.0686 7.47532 23.652 7.78254 23.3448C8.08975 23.0376 8.50642 22.865 8.94088 22.865C9.37534 22.865 9.79201 23.0376 10.0992 23.3448C10.4064 23.652 10.579 24.0686 10.579 24.5031ZM10.579 17.9505C10.579 18.385 10.4064 18.8017 10.0992 19.1089C9.79201 19.4161 9.37534 19.5887 8.94088 19.5887C8.50642 19.5887 8.08975 19.4161 7.78254 19.1089C7.47532 18.8017 7.30273 18.385 7.30273 17.9505C7.30273 17.5161 7.47532 17.0994 7.78254 16.7922C8.08975 16.485 8.50642 16.3124 8.94088 16.3124C9.37534 16.3124 9.79201 16.485 10.0992 16.7922C10.4064 17.0994 10.579 17.5161 10.579 17.9505Z" fill="white"/>
<path d="M26.9605 24.5032C26.9605 24.9377 26.7879 25.3544 26.4807 25.6616C26.1735 25.9688 25.7568 26.1414 25.3223 26.1414C24.8879 26.1414 24.4712 25.9688 24.164 25.6616C23.8568 25.3544 23.6842 24.9377 23.6842 24.5032C23.6842 24.0688 23.8568 23.6521 24.164 23.3449C24.4712 23.0377 24.8879 22.8651 25.3223 22.8651C25.7568 22.8651 26.1735 23.0377 26.4807 23.3449C26.7879 23.6521 26.9605 24.0688 26.9605 24.5032ZM26.9605 17.9506C26.9605 18.3851 26.7879 18.8018 26.4807 19.109C26.1735 19.4162 25.7568 19.5888 25.3223 19.5888C24.8879 19.5888 24.4712 19.4162 24.164 19.109C23.8568 18.8018 23.6842 18.3851 23.6842 17.9506C23.6842 17.5162 23.8568 17.0995 24.164 16.7923C24.4712 16.4851 24.8879 16.3125 25.3223 16.3125C25.7568 16.3125 26.1735 16.4851 26.4807 16.7923C26.7879 17.0995 26.9605 17.5162 26.9605 17.9506ZM18.7698 24.5032C18.7698 24.9377 18.5972 25.3544 18.29 25.6616C17.9827 25.9688 17.5661 26.1414 17.1316 26.1414C16.6972 26.1414 16.2805 25.9688 15.9733 25.6616C15.6661 25.3544 15.4935 24.9377 15.4935 24.5032C15.4935 24.0688 15.6661 23.6521 15.9733 23.3449C16.2805 23.0377 16.6972 22.8651 17.1316 22.8651C17.5661 22.8651 17.9827 23.0377 18.29 23.3449C18.5972 23.6521 18.7698 24.0688 18.7698 24.5032ZM18.7698 17.9506C18.7698 18.3851 18.5972 18.8018 18.29 19.109C17.9827 19.4162 17.5661 19.5888 17.1316 19.5888C16.6972 19.5888 16.2805 19.4162 15.9733 19.109C15.6661 18.8018 15.4935 18.3851 15.4935 17.9506C15.4935 17.5162 15.6661 17.0995 15.9733 16.7923C16.2805 16.4851 16.6972 16.3125 17.1316 16.3125C17.5661 16.3125 17.9827 16.4851 18.29 16.7923C18.5972 17.0995 18.7698 17.5162 18.7698 17.9506ZM10.579 24.5032C10.579 24.9377 10.4064 25.3544 10.0992 25.6616C9.79201 25.9688 9.37534 26.1414 8.94088 26.1414C8.50642 26.1414 8.08975 25.9688 7.78254 25.6616C7.47532 25.3544 7.30273 24.9377 7.30273 24.5032C7.30273 24.0688 7.47532 23.6521 7.78254 23.3449C8.08975 23.0377 8.50642 22.8651 8.94088 22.8651C9.37534 22.8651 9.79201 23.0377 10.0992 23.3449C10.4064 23.6521 10.579 24.0688 10.579 24.5032ZM10.579 17.9506C10.579 18.3851 10.4064 18.8018 10.0992 19.109C9.79201 19.4162 9.37534 19.5888 8.94088 19.5888C8.50642 19.5888 8.08975 19.4162 7.78254 19.109C7.47532 18.8018 7.30273 18.3851 7.30273 17.9506C7.30273 17.5162 7.47532 17.0995 7.78254 16.7923C8.08975 16.4851 8.50642 16.3125 8.94088 16.3125C9.37534 16.3125 9.79201 16.4851 10.0992 16.7923C10.4064 17.0995 10.579 17.5162 10.579 17.9506Z" fill="white"/>
</svg>
