<svg width="32" height="32" viewBox="0 0 32 32" fill="none" xmlns="http://www.w3.org/2000/svg">
<path fill-rule="evenodd" clip-rule="evenodd" d="M26.1773 8.30136C26.451 8.52523 26.6246 8.84863 26.6598 9.20043C26.6951 9.55224 26.5891 9.90364 26.3653 10.1774L14.3653 24.844C14.2474 24.9882 14.1005 25.1061 13.9343 25.19C13.768 25.274 13.5859 25.3221 13.3999 25.3314C13.2139 25.3407 13.0279 25.3109 12.8541 25.244C12.6803 25.177 12.5224 25.0744 12.3907 24.9427L5.72401 18.276C5.59666 18.153 5.49508 18.0059 5.4252 17.8432C5.35533 17.6806 5.31854 17.5056 5.31701 17.3286C5.31547 17.1515 5.3492 16.976 5.41624 16.8121C5.48329 16.6482 5.58229 16.4994 5.70748 16.3742C5.83267 16.249 5.98154 16.15 6.1454 16.0829C6.30926 16.0159 6.48484 15.9822 6.66188 15.9837C6.83891 15.9852 7.01387 16.022 7.17655 16.0919C7.33922 16.1618 7.48634 16.2633 7.60934 16.3907L13.2347 22.016L24.3013 8.48936C24.5252 8.21569 24.8486 8.04215 25.2004 8.00689C25.5522 7.97164 25.9036 8.07756 26.1773 8.30136Z" fill="white"/>
</svg>
