<svg width="24" height="30" viewBox="0 0 24 30" fill="none" xmlns="http://www.w3.org/2000/svg">
<path d="M12.6146 0.349991C12.3502 0.123867 12.0136 -0.000267 11.6657 4.31209e-07C11.3177 0.000267863 10.9814 0.124919 10.7173 0.35145L10.5875 0.463742C10.0649 0.929525 9.55294 1.40701 9.05188 1.89582C7.77728 3.13764 6.57047 4.44718 5.43667 5.81874C4.12125 7.41416 2.77812 9.27937 1.75875 11.2467C0.745208 13.2008 0 15.3533 0 17.5C0 20.5942 1.22916 23.5616 3.41709 25.7496C5.60501 27.9375 8.57247 29.1667 11.6667 29.1667C14.7609 29.1667 17.7283 27.9375 19.9162 25.7496C22.1042 23.5616 23.3333 20.5942 23.3333 17.5C23.3333 15.3533 22.5881 13.2008 21.5746 11.2467C20.5538 9.27791 19.2121 7.41416 17.8967 5.81728C16.4135 4.02353 14.8058 2.33644 13.0856 0.768533L12.616 0.35145L12.6146 0.349991ZM2.91667 17.5C2.91667 16.0008 3.4475 14.3252 4.34729 12.5883C5.24271 10.8646 6.45167 9.17437 7.68687 7.67228C8.92387 6.1758 10.2531 4.75798 11.6667 3.42707C13.0797 4.75708 14.4084 6.17393 15.645 7.66937C16.8817 9.17145 18.0906 10.8631 18.9846 12.5869C19.8858 14.3237 20.4167 15.9994 20.4167 17.4985C20.4167 19.8192 19.4948 22.0448 17.8539 23.6857C16.2129 25.3267 13.9873 26.2485 11.6667 26.2485C9.34602 26.2485 7.12043 25.3267 5.47948 23.6857C3.83854 22.0448 2.91667 19.8192 2.91667 17.4985V17.5Z" fill="white"/>
<path d="M6.35832 17.5613C5.98763 17.6714 5.67585 17.9242 5.49153 18.2641C5.3072 18.6041 5.26543 19.0033 5.3754 19.374C5.68779 20.4188 6.25505 21.3695 7.02613 22.1406C7.79722 22.9117 8.74792 23.4789 9.7927 23.7913C9.97671 23.8475 10.17 23.8667 10.3615 23.8478C10.553 23.829 10.7388 23.7724 10.9083 23.6814C11.0779 23.5903 11.2277 23.4667 11.3492 23.3175C11.4707 23.1683 11.5615 22.9966 11.6163 22.8122C11.6712 22.6277 11.689 22.4343 11.6687 22.243C11.6484 22.0516 11.5905 21.8662 11.4983 21.6973C11.406 21.5285 11.2813 21.3796 11.1312 21.2591C10.9812 21.1387 10.8088 21.0492 10.6239 20.9957C10.0441 20.8216 9.51655 20.5063 9.08846 20.0783C8.66038 19.6502 8.34516 19.1226 8.17103 18.5428C8.06063 18.1724 7.80769 17.8609 7.46779 17.6769C7.1279 17.4929 6.72885 17.4513 6.35832 17.5613Z" fill="white"/>
</svg>
